Coordinates
version=1
nRows=18
nColumns=28
inDegrees=yes

Units are S.I. units (second, meters, Newtons, ...)
Angles are in degrees.

endheader
time	pelvis_tilt	pelvis_list	pelvis_rotation	pelvis_tx	pelvis_ty	pelvis_tz	hip_flexion_r	hip_adduction_r	hip_rotation_r	knee_angle_r	ankle_angle_r	subtalar_angle_r	mtp_angle_r	hip_flexion_l	hip_adduction_l	hip_rotation_l	knee_angle_l	socket_flexion	socket_adduction	socket_rotation	socket_tx	socket_ty	socket_tz	foot_flex	lumbar_extension	lumbar_bending	lumbar_rotation
      0.00000000	     -1.18206540	     -7.09170384	     -8.69731101	     -0.88023025	      0.99170496	      0.27454434	    -24.18685103	      9.46516435	      5.27178288	     -3.18939215	     11.50689373	     -8.51900150	      4.51130897	     26.02021472	    -10.65723256	     10.03589561	      1.34660252	      5.71179467	      0.00000000	      0.00000000	      0.00000000	     -0.00233413	      0.00000000	     -0.52215106	    -11.04827570	      5.42536149	     10.61844277
      0.00416667	     -1.23040445	     -7.14835482	     -8.69413691	     -0.87473581	      0.99111847	      0.27424243	    -24.25646405	      9.47053576	      5.29684286	     -3.53859019	     11.39043279	     -8.54779664	      4.50673735	     25.81729005	    -10.63467807	     10.01581073	      1.38063575	      5.67214142	      0.00000000	      0.00000000	      0.00000000	     -0.00269962	      0.00000000	     -0.80094783	    -10.95080212	      5.48290263	     10.62113227
      0.00833333	     -1.29575545	     -7.18859669	     -8.61942827	     -0.86889637	      0.99043965	      0.27383579	    -24.38160897	      9.48431721	      5.35862149	     -3.77594264	     11.34198858	     -8.54640565	      4.50487205	     25.65729624	    -10.55198709	     10.01786060	      1.36159358	      5.65035750	      0.00000000	      0.00000000	      0.00000000	     -0.00303301	      0.00000000	     -0.87125511	    -10.78887652	      5.53482945	     10.62609647
      0.01250000	     -1.34668719	     -7.30592590	     -8.69549476	     -0.86318840	      0.98992019	      0.27357672	    -24.31233680	      9.52275573	      5.30932263	     -4.43139879	     11.09342358	     -8.62398289	      4.48552132	     25.37917688	    -10.63130918	     10.01731951	      1.51036497	      5.64820328	      0.00000000	      0.00000000	      0.00000000	     -0.00349819	      0.00000000	     -1.38951871	    -10.74884525	      5.66016364	     10.62601416
      0.01666667	     -1.41619260	     -7.35252907	     -8.62474125	     -0.85690864	      0.98921449	      0.27314946	    -24.42312424	      9.53965659	      5.37825524	     -4.71921967	     11.03126255	     -8.62457935	      4.48544156	     25.18237327	    -10.55489067	     10.03609155	      1.50598878	      5.63410133	      0.00000000	      0.00000000	      0.00000000	     -0.00400441	      0.00000000	     -1.46184587	    -10.56539693	      5.72588313	     10.63470970
      0.02083333	     -1.50352630	     -7.53536945	     -8.76582844	     -0.85096574	      0.98868912	      0.27289795	    -24.23933227	      9.61830611	      5.31996189	     -5.57279290	     10.73455844	     -8.72210520	      4.49964000	     24.84886217	    -10.74027952	     10.04454556	      1.84188864	      5.78916983	      0.00000000	      0.00000000	      0.00000000	     -0.00455344	      0.00000000	     -1.93827287	    -10.51763439	      5.93920599	     10.68264857
      0.02500000	     -1.71286557	     -7.66690496	     -9.00904171	     -0.84445328	      0.98800959	      0.27294434	    -24.07864765	      9.63339130	      5.58416033	     -6.19369820	     10.59614940	     -8.69803684	      4.84233427	     24.38365242	    -10.97318184	      9.95337885	      2.73639913	      6.31384089	      0.00000000	      0.00000000	      0.00000000	     -0.00509944	      0.00000000	     -2.17551464	    -10.22870524	      6.07853109	     11.03180591
      0.02916667	     -1.75995423	     -7.70930492	     -8.99132763	     -0.83805694	      0.98747711	      0.27256803	    -24.08462439	      9.62493451	      5.60445426	     -6.72046398	     10.35920213	     -8.75352628	      4.83664673	     24.11760293	    -10.92525500	     10.03095394	      2.76865920	      6.29986606	      0.00000000	      0.00000000	      0.00000000	     -0.00568377	      0.00000000	     -2.48064680	    -10.12343066	      6.10893739	     11.02166683
      0.03333333	     -1.81592743	     -7.78186129	     -8.98369247	     -0.83158312	      0.98695801	      0.27218572	    -24.03599718	      9.64595701	      5.59275880	     -7.35008585	     10.07521124	     -8.84561772	      4.83864206	     23.82437935	    -10.91519946	     10.09938287	      2.87354265	      6.34467467	      0.00000000	      0.00000000	      0.00000000	     -0.00634077	      0.00000000	     -2.78111818	    -10.00812224	      6.19653499	     11.01506570
      0.03750000	     -1.90351389	     -7.86157980	     -8.99758348	     -0.82502413	      0.98643054	      0.27182207	    -23.94653727	      9.66861499	      5.60007055	     -7.99230713	      9.77332842	     -8.95475822	      4.86060000	     23.53224590	    -10.93458412	     10.18652689	      3.03883434	      6.44130265	      0.00000000	      0.00000000	      0.00000000	     -0.00706412	      0.00000000	     -3.04758250	     -9.86104777	      6.29272916	     11.01590566
      0.04166667	     -1.96932139	     -7.88384827	     -8.90709291	     -0.81810864	      0.98590417	      0.27136938	    -24.03000410	      9.66848300	      5.70874230	     -8.33938002	      9.66912486	     -8.95780939	      4.85846851	     23.27893261	    -10.83281457	     10.27125037	      3.01338831	      6.42792280	      0.00000000	      0.00000000	      0.00000000	     -0.00783936	      0.00000000	     -3.13467199	     -9.63568672	      6.32909167	     11.01454829
      0.04583333	     -2.09629445	     -7.96940059	     -9.01522858	     -0.81170072	      0.98552817	      0.27114685	    -23.68840714	      9.68256595	      5.63466943	     -9.36039806	      9.09624743	     -9.22462435	      4.88348906	     22.93730249	    -10.93260603	     10.38084563	      3.36922884	      6.63839310	      0.00000000	      0.00000000	      0.00000000	     -0.00850882	      0.00000000	     -3.54036127	     -9.49753961	      6.42490589	     10.99444163
      0.05000000	     -2.17778501	     -7.96572201	     -8.97627892	     -0.80508630	      0.98519667	      0.27075508	    -23.58036334	      9.65678885	      5.77088917	     -9.99479863	      8.77788866	     -9.30228468	      4.89221682	     22.66657485	    -10.85410578	     10.53882591	      3.46137476	      6.71292548	      0.00000000	      0.00000000	      0.00000000	     -0.00916159	      0.00000000	     -3.80785130	     -9.33562646	      6.40175828	     10.97753305
      0.05416667	     -2.25826880	     -7.96929378	     -8.97023558	     -0.79840034	      0.98492601	      0.27038429	    -23.40215759	      9.62243067	      5.79714150	    -10.75688437	      8.35303682	     -9.46234690	      4.88836896	     22.36713379	    -10.79700652	     10.62916344	      3.57656894	      6.80434369	      0.00000000	      0.00000000	      0.00000000	     -0.00989080	      0.00000000	     -4.05505049	     -9.16260490	      6.40444300	     10.94558763
      0.05833333	     -2.60241962	     -7.89905781	     -9.11290373	     -0.79132966	      0.98445432	      0.27037465	    -22.96617481	      9.53460388	      6.01448091	    -11.48957484	      7.57422187	    -10.15370777	      5.51354641	     22.11918195	    -10.79463887	     10.55413356	      4.19803416	      7.23215322	      0.00000000	      0.00000000	      0.00000000	     -0.01047354	      0.00000000	     -4.24531379	     -8.60749797	      6.36519006	     11.03624889
      0.06250000	     -2.59492142	     -7.87905352	     -9.04987985	     -0.78477327	      0.98444626	      0.26990815	    -22.83300892	      9.48784905	      6.05373135	    -12.28409444	      7.12489802	    -10.25769247	      5.51632576	     21.80455041	    -10.67715262	     10.67134007	      4.14024433	      7.24691913	      0.00000000	      0.00000000	      0.00000000	     -0.01117177	      0.00000000	     -4.45292742	     -8.54754852	      6.32298516	     10.98208155
      0.06666667	     -2.60461768	     -7.81955933	     -8.99077029	     -0.77813166	      0.98444665	      0.26949538	    -22.64970373	      9.40702424	      6.06897319	    -13.12306413	      6.63585947	    -10.38584678	      5.50152887	     21.49075195	    -10.53461018	     10.78873859	      4.11259711	      7.27616084	      0.00000000	      0.00000000	      0.00000000	     -0.01186126	      0.00000000	     -4.63957136	     -8.45644082	      6.22727424	     10.91104039
      0.07083333	     -2.61261905	     -7.72951807	     -8.92565931	     -0.77147403	      0.98456767	      0.26905185	    -22.41823116	      9.30080824	      6.03138942	    -14.01912027	      6.08809948	    -10.54765017	      5.48020598	     21.17303677	    -10.35870352	     10.85809845	      4.09731415	      7.32787307	      0.00000000	      0.00000000	      0.00000000	     -0.01245941	      0.00000000	     -4.80610275	     -8.33751484	      6.11133264	     10.82562025
